HIERARCHY
ROOT Hips
{
    OFFSET 0.000000 0.000000 0.000000
    CHANNELS 6 Xposition Yposition Zposition Zrotation Xrotation Yrotation
    JOINT Spine
    {
        OFFSET -0.000000 8.893295 0.000000
        CHANNELS 3 Zrotation Xrotation Yrotation
        JOINT Spine1
        {
            OFFSET 0.000000 22.239172 0.000000
            CHANNELS 3 Zrotation Xrotation Yrotation
            JOINT Neck
            {
                OFFSET 0.000000 22.239141 0.000000
                CHANNELS 3 Zrotation Xrotation Yrotation
                JOINT Head
                {
                    OFFSET 0.000000 14.016634 1.933330
                    CHANNELS 3 Zrotation Xrotation Yrotation
                    End Site
                    {
                        OFFSET 0.000000 19.333260 0.000000
                    }
                }
            }
            JOINT LeftShoulder
            {
                OFFSET 3.864079 17.421597 -0.379789
                CHANNELS 3 Zrotation Xrotation Yrotation
                JOINT LeftArm
                {
                    OFFSET 12.603296 0.000003 -0.000000
                    CHANNELS 3 Zrotation Xrotation Yrotation
                    JOINT LeftForeArm
                    {
                        OFFSET 28.500397 0.000000 0.000001
                        CHANNELS 3 Zrotation Xrotation Yrotation
                        JOINT LeftHand
                        {
                            OFFSET 25.589701 0.000006 0.000001
                            CHANNELS 3 Zrotation Xrotation Yrotation
                            JOINT LeftHandThumb1
                            {
                                OFFSET 2.020327 -2.295820 3.214150
                                CHANNELS 3 Zrotation Xrotation Yrotation
                                JOINT LeftHandThumb2
                                {
                                    OFFSET 3.051402 -0.000001 0.000000
                                    CHANNELS 3 Zrotation Xrotation Yrotation
                                    JOINT LeftHandThumb3
                                    {
                                        OFFSET 2.608059 0.000000 -0.000000
                                        CHANNELS 3 Zrotation Xrotation Yrotation
                                        End Site
                                        {
                                            OFFSET 2.521115 0.000000 0.000000
                                        }
                                    }
                                }
                            }
                            JOINT LeftHandIndex1
                            {
                                OFFSET 8.264972 -0.000001 3.214151
                                CHANNELS 3 Zrotation Xrotation Yrotation
                                JOINT LeftHandIndex2
                                {
                                    OFFSET 4.591650 0.000001 0.000000
                                    CHANNELS 3 Zrotation Xrotation Yrotation
                                    JOINT LeftHandIndex3
                                    {
                                        OFFSET 2.295819 0.000001 -0.000000
                                        CHANNELS 3 Zrotation Xrotation Yrotation
                                        End Site
                                        {
                                            OFFSET 2.219284 0.000000 0.000000
                                        }
                                    }
                                }
                            }
                            JOINT LeftHandMiddle1
                            {
                                OFFSET 8.264969 -0.000001 1.065260
                                CHANNELS 3 Zrotation Xrotation Yrotation
                                JOINT LeftHandMiddle2
                                {
                                    OFFSET 5.050812 -0.000001 0.000000
                                    CHANNELS 3 Zrotation Xrotation Yrotation
                                    JOINT LeftHandMiddle3
                                    {
                                        OFFSET 2.754987 -0.000000 -0.000000
                                        CHANNELS 3 Zrotation Xrotation Yrotation
                                        End Site
                                        {
                                            OFFSET 2.663147 0.000000 0.000000
                                        }
                                    }
                                }
                            }
                            JOINT LeftHandRing1
                            {
                                OFFSET 7.805803 -0.000001 -1.065260
                                CHANNELS 3 Zrotation Xrotation Yrotation
                                JOINT LeftHandRing2
                                {
                                    OFFSET 4.591650 0.000001 0.000000
                                    CHANNELS 3 Zrotation Xrotation Yrotation
                                    JOINT LeftHandRing3
                                    {
                                        OFFSET 2.295819 0.000001 0.000000
                                        CHANNELS 3 Zrotation Xrotation Yrotation
                                        End Site
                                        {
                                            OFFSET 2.219284 0.000000 0.000000
                                        }
                                    }
                                }
                            }
                            JOINT LeftHandPinky1
                            {
                                OFFSET 7.346639 0.000001 -3.214150
                                CHANNELS 3 Zrotation Xrotation Yrotation
                                JOINT LeftHandPinky2
                                {
                                    OFFSET 3.673320 0.000001 0.000000
                                    CHANNELS 3 Zrotation Xrotation Yrotation
                                    JOINT LeftHandPinky3
                                    {
                                        OFFSET 1.836662 -0.000002 -0.000000
                                        CHANNELS 3 Zrotation Xrotation Yrotation
                                        End Site
                                        {
                                            OFFSET 1.775431 0.000000 0.000000
                                        }
                                    }
                                }
                            }
                        }
                    }
                }
            }
            JOINT RightShoulder
            {
                OFFSET -3.864080 17.421600 -0.379789
                CHANNELS 3 Zrotation Xrotation Yrotation
                JOINT RightArm
                {
                    OFFSET -12.603298 0.000000 0.000000
                    CHANNELS 3 Zrotation Xrotation Yrotation
                    JOINT RightForeArm
                    {
                        OFFSET -28.500402 -0.000006 0.000001
                        CHANNELS 3 Zrotation Xrotation Yrotation
                        JOINT RightHand
                        {
                            OFFSET -25.589699 -0.000004 0.000000
                            CHANNELS 3 Zrotation Xrotation Yrotation
                            JOINT RightHandThumb1
                            {
                                OFFSET -2.020330 -2.295820 3.214150
                                CHANNELS 3 Zrotation Xrotation Yrotation
                                JOINT RightHandThumb2
                                {
                                    OFFSET -3.051399 -0.000000 0.000000
                                    CHANNELS 3 Zrotation Xrotation Yrotation
                                    JOINT RightHandThumb3
                                    {
                                        OFFSET -2.608061 -0.000001 0.000001
                                        CHANNELS 3 Zrotation Xrotation Yrotation
                                        End Site
                                        {
                                            OFFSET -2.521115 0.000000 0.000000
                                        }
                                    }
                                }
                            }
                            JOINT RightHandIndex1
                            {
                                OFFSET -8.264971 0.000000 3.214149
                                CHANNELS 3 Zrotation Xrotation Yrotation
                                JOINT RightHandIndex2
                                {
                                    OFFSET -4.591648 0.000001 -0.000001
                                    CHANNELS 3 Zrotation Xrotation Yrotation
                                    JOINT RightHandIndex3
                                    {
                                        OFFSET -2.295821 -0.000003 0.000000
                                        CHANNELS 3 Zrotation Xrotation Yrotation
                                        End Site
                                        {
                                            OFFSET -2.219284 0.000000 0.000000
                                        }
                                    }
                                }
                            }
                            JOINT RightHandMiddle1
                            {
                                OFFSET -8.264968 0.000002 1.065260
                                CHANNELS 3 Zrotation Xrotation Yrotation
                                JOINT RightHandMiddle2
                                {
                                    OFFSET -5.050811 -0.000003 0.000000
                                    CHANNELS 3 Zrotation Xrotation Yrotation
                                    JOINT RightHandMiddle3
                                    {
                                        OFFSET -2.754990 -0.000000 -0.000000
                                        CHANNELS 3 Zrotation Xrotation Yrotation
                                        End Site
                                        {
                                            OFFSET -2.663147 0.000000 0.000000
                                        }
                                    }
                                }
                            }
                            JOINT RightHandRing1
                            {
                                OFFSET -7.805798 -0.000001 -1.065260
                                CHANNELS 3 Zrotation Xrotation Yrotation
                                JOINT RightHandRing2
                                {
                                    OFFSET -4.591648 0.000001 0.000000
                                    CHANNELS 3 Zrotation Xrotation Yrotation
                                    JOINT RightHandRing3
                                    {
                                        OFFSET -2.295821 -0.000003 0.000000
                                        CHANNELS 3 Zrotation Xrotation Yrotation
                                        End Site
                                        {
                                            OFFSET -2.219284 0.000000 0.000000
                                        }
                                    }
                                }
                            }
                            JOINT RightHandPinky1
                            {
                                OFFSET -7.346637 0.000000 -3.214150
                                CHANNELS 3 Zrotation Xrotation Yrotation
                                JOINT RightHandPinky2
                                {
                                    OFFSET -3.673321 -0.000001 -0.000000
                                    CHANNELS 3 Zrotation Xrotation Yrotation
                                    JOINT RightHandPinky3
                                    {
                                        OFFSET -1.836658 0.000001 0.000000
                                        CHANNELS 3 Zrotation Xrotation Yrotation
                                        End Site
                                        {
                                            OFFSET -1.775431 0.000000 0.000000
                                        }
                                    }
                                }
                            }
                        }
                    }
                }
            }
        }
    }
    JOINT LeftUpLeg
    {
        OFFSET 9.666630 0.000001 0.000000
        CHANNELS 3 Zrotation Xrotation Yrotation
        JOINT LeftLeg
        {
            OFFSET 0.000001 -47.050499 0.000000
            CHANNELS 3 Zrotation Xrotation Yrotation
            JOINT LeftFoot
            {
                OFFSET 0.000001 -39.638500 0.000000
                CHANNELS 3 Zrotation Xrotation Yrotation
                JOINT LeftToeBase
                {
                    OFFSET 0.000000 -6.283309 14.499898
                    CHANNELS 3 Zrotation Xrotation Yrotation
                    End Site
                    {
                        OFFSET 0.000000 0.000000 3.866652
                    }
                }
            }
        }
    }
    JOINT RightUpLeg
    {
        OFFSET -9.666630 -0.000001 0.000000
        CHANNELS 3 Zrotation Xrotation Yrotation
        JOINT RightLeg
        {
            OFFSET 0.000000 -47.050495 -0.000000
            CHANNELS 3 Zrotation Xrotation Yrotation
            JOINT RightFoot
            {
                OFFSET 0.000001 -39.638500 -0.000001
                CHANNELS 3 Zrotation Xrotation Yrotation
                JOINT RightToeBase
                {
                    OFFSET 0.000000 -6.283310 14.499900
                    CHANNELS 3 Zrotation Xrotation Yrotation
                    End Site
                    {
                        OFFSET 0.000000 0.000000 3.866652
                    }
                }
            }
        }
    }
}
MOTION
Frames:    4
Frame Time:    0.008333
41.468433    89.716789    16.868349    -1.072264    -12.752534    0.836167    0.318236    1.779417    -1.550910    1.591178    1.778756    -1.590431    0.374896    2.085635    -6.391616    0.374896    2.085635    -6.391614    3.499026    -0.832306    -19.139231    -8.426167    13.117863    -59.544605    -23.096169    -9.586637    -68.668526    -12.843950    2.264815    -10.937061    47.448204    38.866394    -34.355045    -35.000015    -0.000001    -0.000002    -0.000000    0.000000    -0.000000    -0.000000    9.999996    -0.000001    -0.000000    0.000000    -0.000000    -0.000000    0.000000    -0.000000    -0.000000    0.000000    -0.000000    -0.000000    0.000000    -0.000000    -0.000000    0.000000    -0.000000    -0.000000    0.000000    -0.000000    -0.000000    0.000000    -0.000000    -0.000000    0.000000    -0.000000    0.000000    -9.999990    -0.000002    -0.000000    0.000000    -0.000000    -0.000000    0.000000    -0.000000    -1.043319    -14.141083    16.285091    59.680206    -22.023447    68.335838    57.435291    -16.867229    79.501602    10.642662    7.449203    37.232910    -47.448208    38.866394    34.355042    35.000015    0.000005    -0.000003    -0.000000    0.000000    -0.000000    -0.000011    9.999995    0.000005    -0.000000    0.000000    -0.000000    -0.000000    0.000000    -0.000000    -0.000000    0.000000    -0.000000    -0.000000    0.000000    -0.000000    -0.000000    0.000000    -0.000000    -0.000000    0.000000    -0.000000    -0.000000    0.000000    -0.000000    -0.000000    0.000000    -0.000000    -0.000003    -9.999992    0.000002    -0.000000    0.000000    -0.000000    -0.000000    0.000000    -0.000000    5.818666    19.713940    -2.824138    0.000001    26.202188    0.000000    0.981000    -30.186476    16.352667    -0.000001    -9.158233    -0.000002    -11.213933    -34.671856    2.481913    0.000001    63.180096    -0.000001    19.036718    -10.024882    -10.241363    0.000000    -2.438198    0.000001    
41.587536    89.462303    17.356455    -1.019854    -12.507940    0.320737    0.310438    1.754967    -1.383577    1.552187    1.754348    -1.421601    0.243845    1.303503    -6.525467    0.243845    1.303504    -6.525464    2.895025    -0.319910    -19.494459    -8.730590    14.052273    -60.369514    -22.225708    -8.697961    -69.690880    -13.172389    2.621925    -12.084045    47.448204    38.866394    -34.355045    -35.000023    -0.000002    -0.000001    -0.000000    0.000000    -0.000000    -0.000001    9.999992    -0.000001    -0.000000    0.000000    -0.000000    -0.000000    0.000000    -0.000000    -0.000000    0.000000    -0.000000    -0.000000    0.000000    -0.000000    -0.000000    0.000000    -0.000000    -0.000000    0.000000    -0.000000    -0.000000    0.000000    -0.000000    -0.000000    0.000000    -0.000000    0.000000    -9.999994    -0.000000    -0.000000    0.000000    -0.000000    -0.000000    0.000000    -0.000000    -1.311208    -13.550804    16.566431    58.439358    -19.724493    68.028961    57.506718    -16.697908    79.629677    9.722416    6.715340    37.201981    -47.448223    38.866402    34.355064    35.000031    -0.000003    -0.000004    -0.000000    0.000000    -0.000000    -0.000004    9.999994    0.000001    -0.000000    0.000000    -0.000000    -0.000000    0.000000    -0.000000    -0.000000    0.000000    -0.000000    -0.000000    0.000000    -0.000000    -0.000000    0.000000    -0.000000    -0.000000    0.000000    -0.000000    -0.000000    0.000000    -0.000000    -0.000000    0.000000    -0.000000    -0.000007    -9.999993    0.000001    -0.000000    0.000000    -0.000000    -0.000000    0.000000    -0.000000    5.442563    19.925396    -2.545828    -0.000001    26.236155    0.000000    1.118580    -30.563549    16.769344    0.000001    -9.136956    0.000001    -10.724319    -35.487854    2.689662    0.000001    60.252903    -0.000001    18.894104    -10.215837    -9.665350    0.000001    -2.514576    -0.000002    
41.693394    89.192543    17.877602    -0.972431    -12.232025    -0.162713    0.300655    1.700348    -1.158082    1.503275    1.699787    -1.193762    0.147258    0.546232    -6.697140    0.147258    0.546227    -6.697146    2.322738    0.092728    -19.680830    -9.248832    14.964224    -61.092510    -22.266834    -8.122611    -70.961769    -13.325274    2.818311    -12.731437    47.448219    38.866402    -34.355053    -35.000019    -0.000004    -0.000003    -0.000000    0.000000    -0.000000    0.000001    9.999996    -0.000002    -0.000000    0.000000    -0.000000    -0.000000    0.000000    -0.000000    -0.000000    0.000000    -0.000000    -0.000000    0.000000    -0.000000    -0.000000    0.000000    -0.000000    -0.000000    0.000000    -0.000000    -0.000000    0.000000    -0.000000    -0.000000    0.000000    -0.000000    -0.000001    -9.999996    -0.000001    -0.000000    0.000000    -0.000000    -0.000000    0.000000    -0.000000    -1.534056    -12.932646    16.757326    57.191608    -17.940863    67.689415    59.091961    -16.614017    80.286507    9.166629    6.154415    36.764599    -47.448212    38.866398    34.355042    35.000023    0.000004    -0.000003    -0.000000    0.000000    -0.000000    -0.000000    9.999991    0.000004    -0.000000    0.000000    -0.000000    -0.000000    0.000000    -0.000000    -0.000000    0.000000    -0.000000    -0.000000    0.000000    -0.000000    -0.000000    0.000000    -0.000000    -0.000000    0.000000    -0.000000    -0.000000    0.000000    -0.000000    -0.000000    0.000000    -0.000000    0.000004    -9.999993    0.000001    -0.000000    0.000000    -0.000000    -0.000000    0.000000    -0.000000    5.091166    20.104858    -2.313363    -0.000000    26.295033    0.000000    1.204362    -30.958294    17.168119    0.000000    -9.106414    -0.000002    -10.218213    -36.158134    2.975137    -0.000002    57.092533    0.000002    18.604755    -10.423779    -8.995328    0.000001    -2.616760    -0.000002    
41.794704    88.911179    18.444242    -0.949494    -11.941179    -0.612422    0.285082    1.623816    -0.904585    1.425408    1.623332    -0.936895    0.190711    -0.155386    -6.935895    0.190712    -0.155390    -6.935899    1.704743    0.439788    -19.706011    -9.865836    15.807191    -61.649494    -22.808722    -7.602896    -72.535889    -13.281849    2.777840    -12.624339    47.448204    38.866398    -34.355045    -35.000015    0.000003    0.000001    -0.000000    0.000000    -0.000000    -0.000000    9.999989    -0.000001    -0.000000    0.000000    -0.000000    -0.000000    0.000000    -0.000000    -0.000000    0.000000    -0.000000    -0.000000    0.000000    -0.000000    -0.000000    0.000000    -0.000000    -0.000000    0.000000    -0.000000    -0.000000    0.000000    -0.000000    -0.000000    0.000000    -0.000000    0.000000    -9.999995    0.000002    -0.000000    0.000000    -0.000000    -0.000000    0.000000    -0.000000    -1.632261    -12.322057    16.828094    56.061340    -16.696646    67.357544    61.848812    -16.746071    81.235260    9.088134    5.929573    36.214981    -47.448212    38.866386    34.355045    35.000031    -0.000000    -0.000001    -0.000000    0.000000    -0.000000    0.000004    9.999990    -0.000001    -0.000000    0.000000    -0.000000    -0.000000    0.000000    -0.000000    -0.000000    0.000000    -0.000000    -0.000000    0.000000    -0.000000    -0.000000    0.000000    -0.000000    -0.000000    0.000000    -0.000000    -0.000000    0.000000    -0.000000    -0.000000    0.000000    -0.000000    0.000006    -9.999994    -0.000005    -0.000000    0.000000    -0.000000    -0.000000    0.000000    -0.000000    4.775066    20.276823    -2.114156    0.000001    26.389935    -0.000000    1.241012    -31.407492    17.532936    -0.000000    -9.060954    -0.000000    -9.717957    -36.690044    3.225877    0.000000    53.746040    -0.000000    18.159025    -10.516888    -8.368589    0.000000    -2.710464    0.000002    
